<svg viewBox="0 0 395.52 111.14753142019345" height="111.14753142019345" width="395.52"><g><svg viewBox="0 0 570.2315125392266 160.24429853544228" height="111.14753142019345" width="395.52"><g transform="matrix(1,0,0,1,174.71151253922662,49.51781417691856)"><svg viewBox="0 0 395.52 61.20867018160515" height="61.20867018160515" width="395.52"><g id="textblocktransform"><svg viewBox="0 0 395.52 61.20867018160515" height="61.20867018160515" width="395.52" id="textblock"><g><svg viewBox="0 0 395.52 61.20867018160515" height="61.20867018160515" width="395.52"><g transform="matrix(1,0,0,1,0,0)"><svg width="395.52" viewBox="3.490000009536743 -37.9900016784668 250.02999877929688 38.70000076293945" height="61.20867018160515" data-palette-color="#f00b51"><path d="M3.49-32.79L3.49-37.01 18.46-37.01Q20.95-37.01 23.03-36.36 25.12-35.72 26.65-34.46 28.17-33.2 29.02-31.32 29.86-29.44 29.86-27L29.86-27Q29.86-24.98 29.03-23.18 28.2-21.39 26.68-20.04 25.17-18.7 23.06-17.92 20.95-17.14 18.36-17.14L18.36-17.14 11.79-17.14 11.79-4.2 15.5-4.2 15.5 0 3.49 0 3.49-4.2 7.01-4.2 7.01-32.79 3.49-32.79ZM17.85-32.79L11.79-32.79 11.79-21.14 18.46-21.14Q19.85-21.14 21.01-21.52 22.17-21.9 23.01-22.63 23.85-23.36 24.33-24.46 24.8-25.56 24.8-27L24.8-27Q24.8-29.74 23.14-31.26 21.48-32.79 17.85-32.79L17.85-32.79ZM51.68-25.44L51.68-19.95 47.04-19.95 47.04-21.51Q46.24-21.51 45.4-21.2 44.55-20.9 43.82-20.28 43.09-19.65 42.54-18.69 41.99-17.72 41.75-16.41L41.75-16.41 41.75-4.2 46.04-4.2 46.04 0 33.49 0 33.49-4.2 36.98-4.2 37.01-21.09 33.49-21.09 33.49-25.29 41.57-25.29 41.57-21.8Q42.01-22.58 42.56-23.25 43.11-23.93 43.78-24.43 44.46-24.93 45.27-25.21 46.09-25.49 47.04-25.49L47.04-25.49Q48.31-25.49 49.44-25.49 50.56-25.49 51.68-25.44L51.68-25.44ZM56.73-21.09L56.73-25.29 64.99-25.29 64.99-4.2 68.79-4.2 68.79 0 56.78 0 56.78-4.2 60.4-4.2 60.4-21.09 56.73-21.09ZM59.54-34.25L59.54-34.25Q59.54-34.89 59.8-35.46 60.05-36.04 60.48-36.46 60.91-36.89 61.49-37.15 62.08-37.4 62.74-37.4L62.74-37.4Q63.37-37.4 63.95-37.15 64.52-36.89 64.95-36.46 65.38-36.04 65.63-35.46 65.89-34.89 65.89-34.25L65.89-34.25Q65.89-33.59 65.63-33.01 65.38-32.42 64.95-31.97 64.52-31.52 63.95-31.26 63.37-31.01 62.74-31.01L62.74-31.01Q62.08-31.01 61.49-31.26 60.91-31.52 60.48-31.97 60.05-32.42 59.8-33.01 59.54-33.59 59.54-34.25ZM95.82-18.55L91.23-18.55Q90.2-20.39 88.63-21.24 87.05-22.09 84.98-22.09L84.98-22.09Q83.39-22.09 82-21.44 80.61-20.78 79.57-19.56 78.53-18.33 77.93-16.59 77.34-14.84 77.34-12.7L77.34-12.7Q77.34-10.57 77.93-8.86 78.53-7.15 79.58-5.94 80.63-4.74 82.01-4.09 83.39-3.44 84.98-3.44L84.98-3.44Q87.32-3.44 89.06-4.58 90.79-5.71 91.81-7.91L91.81-7.91 95.57-6.05Q94.84-4.49 93.77-3.25 92.69-2 91.34-1.12 89.98-0.24 88.36 0.23 86.74 0.71 84.93 0.71L84.93 0.71Q82.29 0.71 80.06-0.28 77.82-1.27 76.2-3.05 74.58-4.83 73.67-7.3 72.77-9.77 72.77-12.7L72.77-12.7Q72.77-15.63 73.72-18.09 74.68-20.56 76.34-22.33 78-24.1 80.22-25.1 82.44-26.1 84.98-26.1L84.98-26.1Q87.37-26.1 89.51-25.27 91.64-24.44 93.25-22.75L93.25-22.75 95.82-22.75 95.82-18.55ZM122.77-12.06L104.56-12.06Q104.56-10.99 104.71-10.1 104.87-9.2 105.17-8.4L105.17-8.4Q106.07-5.96 108.06-4.72 110.05-3.49 112.56-3.49L112.56-3.49Q114.54-3.49 116.41-4.04 118.28-4.59 120.33-5.76L120.33-5.76 122.16-2.66Q119.67-0.95 117.15-0.12 114.64 0.71 111.93 0.71L111.93 0.71Q109.37 0.71 107.18-0.15 104.99-1 103.42-2.69 101.85-4.37 100.95-6.88 100.06-9.4 100.06-12.74L100.06-12.74Q100.06-15.45 100.82-17.86 101.58-20.26 103.08-22.06 104.58-23.85 106.8-24.9 109.02-25.95 111.98-25.95L111.98-25.95Q114.83-25.95 116.75-25.09 118.67-24.22 119.88-22.79 121.08-21.36 121.71-19.53 122.33-17.7 122.57-15.8L122.57-15.8Q122.7-14.87 122.73-13.92 122.77-12.96 122.77-12.06L122.77-12.06ZM111.66-22.14L111.66-22.14Q110.07-22.14 108.89-21.69 107.7-21.24 106.87-20.4 106.04-19.56 105.54-18.33 105.04-17.11 104.8-15.6L104.8-15.6 117.91-15.6Q117.81-17.02 117.46-18.21 117.1-19.41 116.37-20.29 115.64-21.17 114.49-21.66 113.34-22.14 111.66-22.14ZM126.5 0Q126.5 0 126.5 0ZM148.5 0L148.5-4.2 151.89-4.2 151.89-33.01 143.44-33.01 143.44-27.25 138.44-27.25 138.44-37.01 171.44-37.01 171.44-27.25 166.44-27.25 166.44-33.01 156.67-33.01 156.67-4.2 160.48-4.2 160.48 0 148.5 0ZM193.07-25.44L193.07-19.95 188.43-19.95 188.43-21.51Q187.63-21.51 186.79-21.2 185.94-20.9 185.21-20.28 184.48-19.65 183.93-18.69 183.38-17.72 183.14-16.41L183.14-16.41 183.14-4.2 187.43-4.2 187.43 0 174.88 0 174.88-4.2 178.38-4.2 178.4-21.09 174.88-21.09 174.88-25.29 182.97-25.29 182.97-21.8Q183.41-22.58 183.95-23.25 184.5-23.93 185.18-24.43 185.85-24.93 186.66-25.21 187.48-25.49 188.43-25.49L188.43-25.49Q189.7-25.49 190.83-25.49 191.95-25.49 193.07-25.44L193.07-25.44ZM213.19 0L213.19-2.34Q211.75-1 210-0.15 208.26 0.71 206.03 0.71L206.03 0.71Q204.18 0.71 202.63 0.12 201.08-0.46 199.96-1.48 198.83-2.49 198.21-3.83 197.59-5.18 197.59-6.69L197.59-6.69Q197.59-8.3 198.06-9.55 198.54-10.79 199.33-11.71 200.13-12.62 201.19-13.24 202.25-13.87 203.41-14.25 204.57-14.62 205.78-14.78 206.99-14.94 208.09-14.94L208.09-14.94Q209.84-14.94 211.04-14.83 212.24-14.72 213.21-14.53L213.21-14.53 213.24-16.6Q213.24-17.94 212.85-18.93 212.46-19.92 211.75-20.57 211.04-21.22 210.05-21.53 209.06-21.85 207.84-21.85L207.84-21.85Q206.69-21.85 205.64-21.69 204.59-21.53 203.68-21.28 202.76-21.02 201.99-20.69 201.23-20.36 200.69-20L200.69-20 199.2-23.14Q200.1-23.73 201.18-24.23 202.25-24.73 203.43-25.09 204.62-25.44 205.85-25.65 207.08-25.85 208.28-25.85L208.28-25.85Q210.48-25.85 212.24-25.33 213.99-24.8 215.21-23.71 216.44-22.61 217.09-20.91 217.75-19.21 217.75-16.85L217.75-16.85 217.73-4.2 220.54-4.2 220.54 0 213.19 0ZM207.04-3.1L207.04-3.1Q207.94-3.1 208.84-3.32 209.75-3.54 210.55-3.92 211.36-4.3 212.04-4.8 212.72-5.3 213.19-5.83L213.19-5.83 213.21-11.55 207.94-11.55Q206.62-11.55 205.53-11.25 204.45-10.96 203.65-10.4 202.86-9.84 202.42-9.01 201.98-8.18 201.98-7.1L201.98-7.1Q201.98-6.1 202.35-5.36 202.71-4.61 203.39-4.11 204.06-3.61 204.98-3.36 205.91-3.1 207.04-3.1ZM225.47-21.09L225.47-25.29 233.72-25.29 233.72-4.2 237.53-4.2 237.53 0 225.51 0 225.51-4.2 229.13-4.2 229.13-21.09 225.47-21.09ZM228.27-34.25L228.27-34.25Q228.27-34.89 228.53-35.46 228.79-36.04 229.21-36.46 229.64-36.89 230.23-37.15 230.81-37.4 231.47-37.4L231.47-37.4Q232.11-37.4 232.68-37.15 233.25-36.89 233.68-36.46 234.11-36.04 234.36-35.46 234.62-34.89 234.62-34.25L234.62-34.25Q234.62-33.59 234.36-33.01 234.11-32.42 233.68-31.97 233.25-31.52 232.68-31.26 232.11-31.01 231.47-31.01L231.47-31.01Q230.81-31.01 230.23-31.26 229.64-31.52 229.21-31.97 228.79-32.42 228.53-33.01 228.27-33.59 228.27-34.25ZM241.5-33.79L241.5-37.99 249.71-37.99 249.71-4.2 253.52-4.2 253.52 0 241.5 0 241.5-4.2 245.17-4.2 245.17-33.79 241.5-33.79Z" opacity="1" transform="matrix(1,0,0,1,0,0)" fill="#f00b51" class="wordmark-text-0" data-fill-palette-color="primary" id="text-0"></path></svg></g></svg></g></svg></g></svg></g><g><svg viewBox="0 0 160.261614517434 160.24429853544228" height="160.24429853544228" width="160.261614517434"><g><svg xmlns="http://www.w3.org/2000/svg" xmlns:xlink="http://www.w3.org/1999/xlink" version="1.1" x="0" y="0" viewBox="6.340000152587891 6.343999862670898 83.32099914550781 83.31199645996094" enable-background="new 0 0 96 96" xml:space="preserve" height="160.24429853544228" width="160.261614517434" class="icon-icon-0" data-fill-palette-color="accent" id="icon-0"></svg></g></svg></g></svg></g><defs></defs><mask id="ae1ec673-ba29-4ec8-8729-9faf07a11f11"><g id="SvgjsG3869"><svg viewBox="0 0 395.52 111.14753142019345" height="111.14753142019345" width="395.52"><g><svg viewBox="0 0 570.2315125392266 160.24429853544228" height="111.14753142019345" width="395.52"><g transform="matrix(1,0,0,1,174.71151253922662,49.51781417691856)"><svg viewBox="0 0 395.52 61.20867018160515" height="61.20867018160515" width="395.52"><g id="SvgjsG3868"><svg viewBox="0 0 395.52 61.20867018160515" height="61.20867018160515" width="395.52" id="SvgjsSvg3867"><g><svg viewBox="0 0 395.52 61.20867018160515" height="61.20867018160515" width="395.52"><g transform="matrix(1,0,0,1,0,0)"><svg width="395.52" viewBox="3.490000009536743 -37.9900016784668 250.02999877929688 38.70000076293945" height="61.20867018160515" data-palette-color="#f00b51"></svg></g></svg></g></svg></g></svg></g><g><svg viewBox="0 0 160.261614517434 160.24429853544228" height="160.24429853544228" width="160.261614517434"><g><svg xmlns="http://www.w3.org/2000/svg" xmlns:xlink="http://www.w3.org/1999/xlink" version="1.1" x="0" y="0" viewBox="6.340000152587891 6.343999862670898 83.32099914550781 83.31199645996094" enable-background="new 0 0 96 96" xml:space="preserve" height="160.24429853544228" width="160.261614517434" class="icon-icon-0" data-fill-palette-color="accent" id="SvgjsSvg3865"><g fill="white"><path d="M64.854 40.684c0 1.962 1.246 3.558 2.779 3.558h0.396c1.533 0 2.781-1.596 2.781-3.558V38.11h-5.957V40.684z" fill="white"></path><path d="M57.311 25.313h-2.764c-0.732 0-1.422 0.36-1.938 1.01-0.537 0.667-0.844 1.587-0.842 2.586l0.766 12.202h6.793l0.766-12.304C60.09 26.881 58.842 25.313 57.311 25.313z" fill="white"></path><path d="M52.949 46.583c0 1.962 1.248 3.558 2.781 3.558h0.395c1.533 0 2.781-1.596 2.783-3.558v-2.574h-5.959V46.583z" fill="white"></path><path d="M69.213 19.414h-2.762c-1.533 0-2.781 1.586-2.781 3.599l0.766 12.199h6.793l0.77-12.303C71.994 20.982 70.746 19.414 69.213 19.414z" fill="white"></path><path d="M61.703 6.344c-15.414 0-27.955 12.541-27.955 27.956 0 6.978 2.567 13.601 7.253 18.759l-7.588 7.588-2.974-2.975L6.34 81.775l7.882 7.881 24.098-24.105-2.961-2.961 7.587-7.587c5.16 4.685 11.783 7.253 18.76 7.253 15.414 0 27.955-12.541 27.955-27.956S77.119 6.344 61.703 6.344zM61.705 57.777c-12.947 0-23.479-10.531-23.479-23.479 0-12.946 10.532-23.479 23.479-23.479 12.945 0 23.479 10.533 23.479 23.479C85.184 47.245 74.65 57.777 61.705 57.777z" fill="white"></path></g></svg></g></svg></g></svg></g><defs><mask></mask></defs></svg></g></mask><linearGradient x1="0" x2="1" y1="0.5" y2="0.5" id="5e52358f-661f-4da9-9bfa-6ad2d010bed7"><stop stop-color="#f00b51" offset="0"></stop><stop stop-color="#730062" offset="1"></stop></linearGradient><rect width="395.5199890136719" height="111.14752960205078" fill="url(#5e52358f-661f-4da9-9bfa-6ad2d010bed7)" mask="url(#ae1ec673-ba29-4ec8-8729-9faf07a11f11)" data-fill-palette-color="accent"></rect></svg>